<svg xmlns="http://www.w3.org/2000/svg" width="1440" height="464" fill="none" viewBox="0 0 1440 464">
  <g clip-path="url(#a)">
    <g filter="url(#b)">
      <path fill="#4DCCC9" d="M-12 34.665c11.5-17.56 62.376-37.476 108-11.5 68.5 39 55.35 169.276 157 139.936 70-20.204 84.281-75.298 128.5-85.936C457 59 500 137.6 534.5 163.1s123 5.761 191.5-85.936c68.5-91.698 168 4.482 192 37.649s95.5 70.724 128 59.993c32.5-10.73 68-36.581 80-48.287 12-11.706 39.2-61.97 61-84.123C1211.5 17.5 1233 0 1272.5 0c24.61 0 65.5 9 115 52 32.71 28.418 48.28 64.409 55.5 37.938v389.227H-12v-444.5Z"/>
      <path fill="#4DCCC9" d="M-12 34.665c11.5-17.56 62.376-37.476 108-11.5 68.5 39 55.35 169.276 157 139.936 70-20.204 84.281-75.298 128.5-85.936C457 59 500 137.6 534.5 163.1s123 5.761 191.5-85.936c68.5-91.698 168 4.482 192 37.649s95.5 70.724 128 59.993c32.5-10.73 68-36.581 80-48.287 12-11.706 39.2-61.97 61-84.123C1211.5 17.5 1233 0 1272.5 0c24.61 0 65.5 9 115 52 32.71 28.418 48.28 64.409 55.5 37.938v389.227H-12v-444.5Z"/>
      <path fill="#4DCCC9" d="M-12 34.665c11.5-17.56 62.376-37.476 108-11.5 68.5 39 55.35 169.276 157 139.936 70-20.204 84.281-75.298 128.5-85.936C457 59 500 137.6 534.5 163.1s123 5.761 191.5-85.936c68.5-91.698 168 4.482 192 37.649s95.5 70.724 128 59.993c32.5-10.73 68-36.581 80-48.287 12-11.706 39.2-61.97 61-84.123C1211.5 17.5 1233 0 1272.5 0c24.61 0 65.5 9 115 52 32.71 28.418 48.28 64.409 55.5 37.938v389.227H-12v-444.5Z"/>
      <path fill="#4DCCC9" d="M-12 34.665c11.5-17.56 62.376-37.476 108-11.5 68.5 39 55.35 169.276 157 139.936 70-20.204 84.281-75.298 128.5-85.936C457 59 500 137.6 534.5 163.1s123 5.761 191.5-85.936c68.5-91.698 168 4.482 192 37.649s95.5 70.724 128 59.993c32.5-10.73 68-36.581 80-48.287 12-11.706 39.2-61.97 61-84.123C1211.5 17.5 1233 0 1272.5 0c24.61 0 65.5 9 115 52 32.71 28.418 48.28 64.409 55.5 37.938v389.227H-12v-444.5Z"/>
    </g>
    <g filter="url(#c)">
      <path fill="#A0CEE9" d="M-1.436 119.578c14.665 42.039 66.557 125.515 156.803 123.113 112.808-3.003 116.192-49.045 190.645-71.566 74.453-22.52 150.035 3.003 194.594 42.039s90.188 114.996 164.699 119.609c60.195 3.727 147.59-88.414 185.569-143.131C925.656 137.928 985.302 70.162 1044.5 83c83 18 91.73 126.661 157.16 116.651 65.43-10.009 126.34-112.603 194.03-101.593 67.68 11.011 104.35 66.561 133.68 94.587 29.33 28.026 94.19 16.015 95.88-74.068 1.36-72.066.57 277.921 0 461.923H-2l.564-460.922Z"/>
    </g>
  </g>
  <defs>
    <filter id="b" width="1463" height="487.165" x="-16" y="0" color-interpolation-filters="sRGB" filterUnits="userSpaceOnUse">
      <feFlood flood-opacity="0" result="BackgroundImageFix"/>
      <feColorMatrix in="SourceAlpha" result="hardAlpha" values="0 0 0 0 0 0 0 0 0 0 0 0 0 0 0 0 0 0 127 0"/>
      <feOffset dy="4"/>
      <feGaussianBlur stdDeviation="2"/>
      <feComposite in2="hardAlpha" operator="out"/>
      <feColorMatrix values="0 0 0 0 0 0 0 0 0 0 0 0 0 0 0 0 0 0 0.25 0"/>
      <feBlend in2="BackgroundImageFix" result="effect1_dropShadow_291_551"/>
      <feBlend in="SourceGraphic" in2="effect1_dropShadow_291_551" result="shape"/>
    </filter>
    <filter id="c" width="1728" height="599.086" x="-52" y="35.414" color-interpolation-filters="sRGB" filterUnits="userSpaceOnUse">
      <feFlood flood-opacity="0" result="BackgroundImageFix"/>
      <feColorMatrix in="SourceAlpha" result="hardAlpha" values="0 0 0 0 0 0 0 0 0 0 0 0 0 0 0 0 0 0 127 0"/>
      <feOffset dy="4"/>
      <feGaussianBlur stdDeviation="25"/>
      <feComposite in2="hardAlpha" operator="out"/>
      <feColorMatrix values="0 0 0 0 0 0 0 0 0 0 0 0 0 0 0 0 0 0 0.25 0"/>
      <feBlend in2="BackgroundImageFix" result="effect1_dropShadow_291_551"/>
      <feBlend in="SourceGraphic" in2="effect1_dropShadow_291_551" result="shape"/>
    </filter>
    <clipPath id="a">
      <path fill="#fff" d="M0 0h1440v464H0z"/>
    </clipPath>
  </defs>
</svg>
