<svg xmlns="http://www.w3.org/2000/svg" width="260" height="1033" fill="none" viewBox="0 0 260 1033">
  <g opacity=".6">
    <path stroke="#0B7077" d="M-202.088 170.822c91.44 24.29 188.907 37.139 253.332 105.828 75.882 80.905 131.6 186.475 115.018 286.904C149.143 667.229 59.87 737.09-33.408 789.334c-95.265 53.357-203.787 84.532-318.908 64.667-129.388-22.326-276.349-66.287-339.743-178.319-61.759-109.144 3.451-228.821 48.704-336.022 35.949-85.16 87.71-165.882 177.702-200.315 81.784-31.292 173.802 7.633 263.565 31.477Z" clip-rule="evenodd"/>
    <path stroke="#0B7077" d="M-139.363 131.036C-19.449 164.59 52.8 281.953 108.1 389.397c48.158 93.567 58.985 194.792 34.971 290.383-23.29 92.708-71.08 184.786-163.364 220.705-86.189 33.547-181.028-34.963-277.4-49.151-127.617-18.787-278.11 46.636-368.749-45.973-92.777-94.793-64.559-242.534-25.161-356.497 35.439-102.51 128.302-164.97 224.598-220.391 100.274-57.71 207.553-131.04 327.642-97.437Z" clip-rule="evenodd"/>
    <path stroke="#0B7077" d="M-119.601 156.664c115.004 7.718 237.695 81.471 285.349 183.991 44.998 96.803-39.172 185.883-68.969 281.51C71.037 704.779 75.065 800.58 5.764 854.092c-78.817 60.86-190.258 100.977-292.833 64.469-99.235-35.319-123.927-151.915-185.917-234.863-69.498-92.994-224.21-170.438-193.384-272.67 31.194-103.448 206.405-58.581 307.441-105.584 89.545-41.658 135.545-155.745 239.328-148.78Z" clip-rule="evenodd"/>
    <path stroke="#0B7077" d="M-172.162 137.935C-61.731 162.084 24.98 255.248 74.585 353.419c44.462 87.995 8.222 178.321-.871 271.127-11.116 113.453 39.396 260.237-57.266 322.212-97.233 62.342-232.827-26.218-353.444-58.884-121.896-33.012-275.376-25.408-342.324-129.546-66.753-103.833 2.475-224.384 47.551-328.97 35.608-82.619 99.185-142.473 176.865-191.727 85.831-54.423 175.688-123.107 282.742-99.696Z" clip-rule="evenodd"/>
    <path stroke="#0B7077" d="M-193.542 179.172c84.121 33.268 181.447 36.084 239.796 103.733 64.836 75.171 78.286 171.193 77.026 263.589-1.645 120.666 11.022 260.143-85.146 332.022-102.491 76.604-257.654 66.062-390.573 23.542-127.451-40.771-238.549-129.596-299.376-244.253-55.728-105.048-30.85-218.91-3.53-326.724 26.225-103.486 47.8-230.191 153.464-264.949 102.009-33.555 202.426 71.154 308.339 113.04Z" clip-rule="evenodd"/>
    <path stroke="#0B7077" d="M-210.111 230.679c115.107 27.661 273.287-7.502 329.421 93.443C176.053 426.164 37.932 511.887 3.583 614.965c-28.053 84.185 15.189 204.074-64.06 248.691-79.415 44.71-181.043-33.961-276.226-57.112-101.692-24.734-230.782 2.547-291.537-80.983-61.028-83.907 13.267-182.401 31.383-276.698 18.95-98.634-13.772-228.473 75.328-278.739 89.341-50.402 204.223 34.795 311.418 60.555Z" clip-rule="evenodd"/>
    <path stroke="#0B7077" d="M-197.385 199.553c82.905 27.101 146.126 84.662 202.952 149.658 70.312 80.422 156.006 161.001 155.585 260.43-.483 114.42-50.016 237.584-157.877 281.599-104.157 42.503-221.761-41.055-335.143-80.414-100.108-34.75-210.341-51.312-276.83-132.021-72.681-88.223-114.371-205.046-83.14-304.928 29.87-95.528 135.17-141.573 233.602-176.276 82.189-28.977 172.991-26.768 260.851 1.952Z" clip-rule="evenodd"/>
    <path stroke="#0B7077" d="M-202.64 181.384c97.491 28.602 161.816 113.534 217.677 196.105 56.514 83.536 105.166 173.32 95.624 267.001-10.566 103.74-48.84 218.009-148.927 256.328-96.203 36.832-203.667-38.697-304.349-82.788-78.225-34.257-150.05-74.268-203.124-139.451-60.622-74.451-123.238-158.468-111.006-246.342 12.783-91.838 90.792-155.439 173.273-201.003 83.603-46.183 182.139-78.805 280.832-49.85Z" clip-rule="evenodd"/>
  </g>
</svg>
