<svg xmlns="http://www.w3.org/2000/svg" width="762" height="75" fill="none" viewBox="0 0 762 75">
  <rect width="762" height="74" y=".076" fill="url(#a)" rx="10"/>
  <path fill="#fff" d="M27.873 30.06v-3.802h17.919v3.803h-6.68v18.015h-4.56V30.06h-6.68Zm34.059.747h2.631c-.007 1.235-.191 2.272-.554 3.11-.362.831-.976 1.456-1.843 1.875-.86.42-2.034.629-3.526.629v-2.024c.987 0 1.712-.132 2.173-.394a1.82 1.82 0 0 0 .906-1.183c.142-.532.213-1.204.213-2.013ZM55.23 41.109v-9.397h4.528v16.364h-4.347v-2.973h-.17a4.832 4.832 0 0 1-1.843 2.312c-.853.583-1.893.874-3.122.874-1.094 0-2.056-.249-2.887-.746-.83-.497-1.48-1.204-1.95-2.12-.461-.916-.696-2.013-.703-3.292V31.712h4.539v9.61c0 .965.255 1.729.767 2.29.518.561 1.207.842 2.066.842.547 0 1.055-.125 1.524-.373.476-.256.86-.632 1.15-1.13.299-.497.448-1.111.448-1.843Zm-2.29 13.093a2.466 2.466 0 0 1-1.737-.672c-.483-.447-.724-.987-.724-1.619s.241-1.172.724-1.62a2.466 2.466 0 0 1 1.736-.67c.675 0 1.25.223 1.726.67.483.448.725.988.725 1.62 0 .632-.242 1.172-.725 1.62-.475.447-1.05.67-1.725.67Zm22.332-5.86c-1.242 0-2.368-.32-3.377-.959-1.001-.646-1.796-1.594-2.386-2.844-.582-1.257-.874-2.798-.874-4.624 0-1.875.302-3.434.906-4.677.604-1.25 1.406-2.184 2.408-2.801a6.169 6.169 0 0 1 3.313-.938c.916 0 1.68.156 2.29.469.618.305 1.115.689 1.492 1.15.383.455.674.902.873 1.343h.139v-8.203h4.528v21.818H80.11v-2.62h-.192a5.85 5.85 0 0 1-.905 1.352c-.384.44-.884.806-1.502 1.097-.611.291-1.357.437-2.237.437Zm1.439-3.611c.731 0 1.35-.2 1.853-.597.512-.405.902-.97 1.172-1.694.277-.724.416-1.573.416-2.546 0-.973-.135-1.818-.405-2.535-.27-.718-.66-1.272-1.172-1.663-.511-.39-1.133-.585-1.864-.585-.746 0-1.375.202-1.886.607-.511.405-.898.966-1.161 1.683-.263.717-.394 1.548-.394 2.493 0 .952.131 1.793.394 2.525.27.724.657 1.293 1.161 1.704.511.405 1.14.608 1.886.608Zm-.895-14.137V27.92h10.632v2.674H75.817Zm18.092 17.801c-1.654 0-3.086-.351-4.293-1.054a7.217 7.217 0 0 1-2.78-2.962c-.654-1.271-.98-2.745-.98-4.421 0-1.69.326-3.168.98-4.432.653-1.271 1.58-2.258 2.78-2.962 1.207-.71 2.639-1.065 4.293-1.065 1.655 0 3.083.355 4.283 1.065a7.109 7.109 0 0 1 2.791 2.962c.654 1.264.98 2.742.98 4.432 0 1.676-.326 3.15-.98 4.421a7.193 7.193 0 0 1-2.79 2.962c-1.201.703-2.629 1.054-4.284 1.054Zm.022-3.515c.753 0 1.381-.213 1.885-.64.505-.433.885-1.022 1.14-1.768.263-.746.394-1.594.394-2.546 0-.952-.13-1.8-.394-2.546-.255-.746-.635-1.335-1.14-1.769-.504-.433-1.132-.65-1.885-.65-.76 0-1.4.217-1.918.65-.511.434-.898 1.023-1.161 1.769-.256.745-.384 1.594-.384 2.546 0 .952.128 1.8.384 2.546.263.746.65 1.335 1.161 1.769.519.426 1.158.639 1.918.639Zm2.12-15.128-2.142-2.6-2.14 2.6H87.9v-.15l4.315-4.687h3.377l4.325 4.688v.149H96.05Zm-2.142 24.45a2.466 2.466 0 0 1-1.736-.672c-.483-.447-.725-.987-.725-1.619s.242-1.172.725-1.62a2.466 2.466 0 0 1 1.736-.67c.675 0 1.25.223 1.726.67.483.448.725.988.725 1.62 0 .632-.242 1.172-.725 1.62-.476.447-1.05.67-1.726.67Zm13.744-15.586v9.46h-4.539V31.712h4.326V34.6h.191a4.571 4.571 0 0 1 1.822-2.258c.852-.561 1.886-.842 3.1-.842 1.137 0 2.127.249 2.973.746.845.497 1.502 1.207 1.97 2.13.469.917.704 2.01.704 3.282v10.419h-4.539v-9.61c.007-1.001-.248-1.782-.767-2.343-.518-.569-1.232-.853-2.141-.853-.611 0-1.151.132-1.619.395a2.747 2.747 0 0 0-1.087 1.15c-.256.497-.387 1.098-.394 1.8Zm19.696 15.937c-1.471 0-2.731-.202-3.782-.607-1.044-.398-1.875-.941-2.493-1.63a5.015 5.015 0 0 1-1.204-2.323l4.197-.564c.128.326.331.632.608.916.277.284.642.511 1.097.682.462.177 1.023.266 1.683.266.987 0 1.801-.241 2.44-.724.646-.476.969-1.275.969-2.397v-2.994h-.191a4.329 4.329 0 0 1-.895 1.29c-.398.404-.909.734-1.534.99s-1.371.383-2.238.383c-1.228 0-2.347-.284-3.355-.852-1.002-.575-1.801-1.452-2.398-2.631-.589-1.186-.884-2.685-.884-4.496 0-1.854.302-3.402.906-4.645.603-1.243 1.406-2.173 2.407-2.791a6.225 6.225 0 0 1 3.314-.927c.916 0 1.683.156 2.301.469.618.305 1.115.689 1.491 1.15.384.455.679.902.885 1.343h.17v-2.749h4.506v16.524c0 1.392-.341 2.556-1.022 3.494-.682.937-1.627 1.64-2.834 2.11-1.2.475-2.582.713-4.144.713Zm.096-10.12c.731 0 1.349-.182 1.853-.544.512-.37.902-.895 1.172-1.577.277-.689.416-1.512.416-2.471 0-.96-.135-1.79-.405-2.493-.27-.71-.661-1.26-1.172-1.651-.511-.391-1.133-.586-1.864-.586-.746 0-1.375.202-1.886.607-.511.398-.899.952-1.161 1.662-.263.71-.395 1.53-.395 2.46 0 .945.132 1.762.395 2.451.27.682.657 1.21 1.161 1.587.511.37 1.14.554 1.886.554Zm19.398-5.817v9.46h-4.539V26.258h4.411v8.341h.192c.369-.966.965-1.722 1.789-2.269.824-.554 1.858-.83 3.1-.83 1.137 0 2.128.248 2.973.745.852.49 1.513 1.197 1.981 2.12.476.916.71 2.013.703 3.292v10.419h-4.538v-9.61c.007-1.008-.249-1.793-.767-2.354-.511-.561-1.229-.842-2.152-.842-.618 0-1.165.132-1.641.395a2.8 2.8 0 0 0-1.108 1.15c-.262.497-.397 1.098-.404 1.8Zm19.775 9.78c-1.654 0-3.086-.352-4.293-1.055a7.215 7.215 0 0 1-2.78-2.962c-.654-1.271-.981-2.745-.981-4.421 0-1.69.327-3.168.981-4.432.653-1.271 1.58-2.258 2.78-2.962 1.207-.71 2.639-1.065 4.293-1.065 1.655 0 3.083.355 4.283 1.065a7.112 7.112 0 0 1 2.791 2.962c.654 1.264.98 2.742.98 4.432 0 1.676-.326 3.15-.98 4.421a7.196 7.196 0 0 1-2.791 2.962c-1.2.703-2.628 1.054-4.283 1.054Zm.022-3.516c.753 0 1.381-.213 1.885-.64.505-.433.885-1.022 1.14-1.768.263-.746.394-1.594.394-2.546 0-.952-.131-1.8-.394-2.546-.255-.746-.635-1.335-1.14-1.769-.504-.433-1.132-.65-1.885-.65-.76 0-1.399.217-1.918.65-.511.434-.898 1.023-1.161 1.769-.256.745-.384 1.594-.384 2.546 0 .952.128 1.8.384 2.546.263.746.65 1.335 1.161 1.769.519.426 1.158.639 1.918.639Zm-1.652-15.277 2.259-4.848h4.197l-3.249 4.848h-3.207Zm15.502 18.782c-1.044 0-1.975-.181-2.792-.544a4.499 4.499 0 0 1-1.939-1.63c-.468-.724-.703-1.626-.703-2.706 0-.909.167-1.672.501-2.29a4.051 4.051 0 0 1 1.364-1.492 6.603 6.603 0 0 1 1.96-.852 14.962 14.962 0 0 1 2.322-.405 56.366 56.366 0 0 0 2.301-.277c.583-.092 1.005-.227 1.268-.404.263-.178.394-.44.394-.789v-.064c0-.674-.213-1.196-.639-1.566-.419-.369-1.015-.554-1.79-.554-.816 0-1.466.181-1.949.544-.483.355-.803.802-.959 1.342l-4.197-.34c.213-.995.632-1.855 1.257-2.58.625-.73 1.431-1.292 2.418-1.682.994-.398 2.145-.597 3.452-.597.909 0 1.779.107 2.61.32a6.83 6.83 0 0 1 2.226.99 4.806 4.806 0 0 1 1.545 1.726c.377.696.565 1.53.565 2.504v11.037H185.4v-2.27h-.128a4.611 4.611 0 0 1-1.055 1.354 4.88 4.88 0 0 1-1.587.905c-.618.213-1.332.32-2.141.32Zm1.299-3.132c.668 0 1.257-.132 1.769-.395.511-.27.912-.632 1.204-1.086.291-.455.436-.97.436-1.545v-1.736a2.428 2.428 0 0 1-.586.255c-.241.071-.514.139-.82.203-.305.056-.611.11-.916.16l-.831.117a5.618 5.618 0 0 0-1.396.373c-.397.17-.706.4-.926.692-.221.284-.331.64-.331 1.065 0 .618.224 1.09.671 1.417.455.32 1.03.48 1.726.48Zm30.036-13.54-5.721 16.363h-5.114l-5.721-16.364h4.794l3.399 11.708h.17l3.388-11.708h4.805Zm4.749 16.672c-1.044 0-1.974-.181-2.791-.544a4.493 4.493 0 0 1-1.939-1.63c-.469-.724-.703-1.626-.703-2.706 0-.909.167-1.672.5-2.29a4.06 4.06 0 0 1 1.364-1.492 6.614 6.614 0 0 1 1.96-.852 14.954 14.954 0 0 1 2.323-.405 56.808 56.808 0 0 0 2.301-.277c.582-.092 1.005-.227 1.268-.404.262-.178.394-.44.394-.789v-.064c0-.674-.213-1.196-.639-1.566-.419-.369-1.016-.554-1.79-.554-.817 0-1.467.181-1.95.544a2.504 2.504 0 0 0-.959 1.342l-4.197-.34c.213-.995.632-1.855 1.257-2.58.625-.73 1.431-1.292 2.418-1.682.995-.398 2.145-.597 3.452-.597.909 0 1.779.107 2.61.32.838.213 1.58.543 2.227.99a4.825 4.825 0 0 1 1.545 1.726c.376.696.564 1.53.564 2.504v11.037h-4.304v-2.27h-.128a4.608 4.608 0 0 1-1.054 1.354c-.441.383-.97.685-1.588.905-.618.213-1.331.32-2.141.32Zm1.3-3.132c.667 0 1.257-.132 1.768-.395.511-.27.913-.632 1.204-1.086.291-.455.437-.97.437-1.545v-1.736a2.446 2.446 0 0 1-.586.255c-.242.071-.515.139-.82.203-.306.056-.611.11-.917.16l-.831.117a5.61 5.61 0 0 0-1.395.373c-.398.17-.707.4-.927.692-.22.284-.33.64-.33 1.065 0 .618.223 1.09.671 1.417.454.32 1.03.48 1.726.48Zm-.437-15.65-3.249-4.848h4.186l2.27 4.848h-3.207Zm23.92 2.11v3.408h-9.854v-3.409h9.854Zm-7.617-3.921h4.538v15.255c0 .42.064.746.192.98.128.228.306.388.533.48.234.092.504.138.81.138.213 0 .426-.017.639-.053l.49-.096.714 3.377c-.228.071-.547.153-.959.245-.412.1-.913.16-1.502.181-1.094.043-2.053-.102-2.877-.436-.817-.334-1.452-.852-1.907-1.556-.454-.703-.678-1.59-.671-2.663V27.792Zm13.664 10.824v9.46h-4.539V26.258h4.411v8.341h.191c.37-.966.966-1.722 1.79-2.269.824-.554 1.857-.83 3.1-.83 1.137 0 2.127.248 2.973.745.852.49 1.512 1.197 1.981 2.12.476.916.71 2.013.703 3.292v10.419h-4.538v-9.61c.007-1.008-.249-1.793-.767-2.354-.511-.561-1.229-.842-2.152-.842-.618 0-1.165.132-1.641.395a2.8 2.8 0 0 0-1.108 1.15c-.262.497-.397 1.098-.404 1.8Zm17.048 9.769c-1.044 0-1.974-.181-2.791-.544a4.493 4.493 0 0 1-1.939-1.63c-.469-.724-.703-1.626-.703-2.706 0-.909.167-1.672.501-2.29a4.049 4.049 0 0 1 1.363-1.492 6.614 6.614 0 0 1 1.96-.852 14.954 14.954 0 0 1 2.323-.405 56.366 56.366 0 0 0 2.301-.277c.582-.092 1.005-.227 1.268-.404.263-.178.394-.44.394-.789v-.064c0-.674-.213-1.196-.639-1.566-.419-.369-1.016-.554-1.79-.554-.817 0-1.467.181-1.95.544-.483.355-.802.802-.958 1.342l-4.198-.34c.213-.995.632-1.855 1.257-2.58.625-.73 1.431-1.292 2.419-1.682.994-.398 2.144-.597 3.451-.597.909 0 1.779.107 2.61.32a6.828 6.828 0 0 1 2.227.99 4.825 4.825 0 0 1 1.545 1.726c.376.696.564 1.53.564 2.504v11.037h-4.304v-2.27h-.128a4.608 4.608 0 0 1-1.054 1.354c-.441.383-.97.685-1.588.905-.617.213-1.331.32-2.141.32Zm1.3-3.132c.667 0 1.257-.132 1.768-.395a3.13 3.13 0 0 0 1.204-1.086c.291-.455.437-.97.437-1.545v-1.736a2.428 2.428 0 0 1-.586.255c-.242.071-.515.139-.82.203-.306.056-.611.11-.917.16l-.831.117a5.622 5.622 0 0 0-1.395.373c-.398.17-.707.4-.927.692-.22.284-.33.64-.33 1.065 0 .618.223 1.09.671 1.417.454.32 1.03.48 1.726.48Zm11.852 8.96a8.99 8.99 0 0 1-1.619-.14 5.907 5.907 0 0 1-1.236-.33l1.023-3.387a5.595 5.595 0 0 0 1.438.266c.433.014.806-.085 1.119-.298.319-.213.578-.576.777-1.087l.267-.692-5.87-16.833h4.772l3.388 12.017h.171l3.419-12.017h4.805l-6.36 18.132c-.306.881-.721 1.648-1.247 2.301a5.106 5.106 0 0 1-1.97 1.524c-.796.362-1.755.543-2.877.543Zm24.15-5.87c-1.243 0-2.369-.32-3.378-.96-1.001-.646-1.796-1.594-2.386-2.844-.582-1.257-.873-2.798-.873-4.624 0-1.875.301-3.434.905-4.677.604-1.25 1.406-2.184 2.408-2.801a6.168 6.168 0 0 1 3.313-.938c.916 0 1.68.156 2.29.469.618.305 1.115.689 1.492 1.15.383.455.675.902.873 1.343h.139v-8.203h4.528v21.818h-4.475v-2.62h-.192a5.832 5.832 0 0 1-.905 1.352c-.384.44-.884.806-1.502 1.097-.611.291-1.357.437-2.237.437Zm1.438-3.612c.731 0 1.349-.2 1.854-.597.511-.405.901-.97 1.171-1.694.277-.724.416-1.573.416-2.546 0-.973-.135-1.818-.405-2.535-.27-.718-.66-1.272-1.172-1.663-.511-.39-1.133-.585-1.864-.585-.746 0-1.374.202-1.886.607-.511.405-.898.966-1.161 1.683-.263.717-.394 1.548-.394 2.493 0 .952.131 1.793.394 2.525.27.724.657 1.293 1.161 1.704.512.405 1.14.608 1.886.608Zm-.895-14.137V27.92h10.632v2.674h-10.632Zm18.093 17.801c-1.655 0-3.086-.351-4.294-1.054a7.215 7.215 0 0 1-2.78-2.962c-.654-1.271-.98-2.745-.98-4.421 0-1.69.326-3.168.98-4.432.653-1.271 1.58-2.258 2.78-2.962 1.208-.71 2.639-1.065 4.294-1.065 1.654 0 3.082.355 4.282 1.065a7.107 7.107 0 0 1 2.791 2.962c.654 1.264.98 2.742.98 4.432 0 1.676-.326 3.15-.98 4.421a7.19 7.19 0 0 1-2.791 2.962c-1.2.703-2.628 1.054-4.282 1.054Zm.021-3.515c.753 0 1.381-.213 1.885-.64.505-.433.885-1.022 1.14-1.768.263-.746.395-1.594.395-2.546 0-.952-.132-1.8-.395-2.546-.255-.746-.635-1.335-1.14-1.769-.504-.433-1.132-.65-1.885-.65-.76 0-1.399.217-1.918.65-.511.434-.898 1.023-1.161 1.769-.256.745-.384 1.594-.384 2.546 0 .952.128 1.8.384 2.546.263.746.65 1.335 1.161 1.769.519.426 1.158.639 1.918.639Zm1.246-18.154 4.198 3.314h-3.122l-2.365-1.865-2.397 1.865h-3.121l4.197-3.314h2.61Zm5.167 1.45h-2.354l-.203-1.599c.611-.028 1.055-.106 1.332-.234.277-.128.416-.316.416-.565 0-.326-.174-.547-.523-.66-.348-.114-.781-.17-1.299-.17l.106-1.716c1.442 0 2.543.213 3.303.64.76.418 1.14 1.011 1.14 1.778 0 .533-.203.941-.607 1.226a3.165 3.165 0 0 1-1.311.532v.767Zm2.77 19.9V31.712h4.539v16.364h-4.539Zm2.28-18.473a2.466 2.466 0 0 1-1.736-.671c-.476-.455-.714-.998-.714-1.63 0-.625.238-1.162.714-1.609a2.445 2.445 0 0 1 1.736-.682c.675 0 1.25.227 1.726.682.483.447.725.984.725 1.609 0 .632-.242 1.175-.725 1.63-.476.447-1.051.67-1.726.67Zm9.238 24.61v-22.5h4.474v2.748h.202c.199-.44.487-.888.863-1.343.384-.461.881-.845 1.492-1.15.618-.313 1.385-.469 2.301-.469 1.193 0 2.294.313 3.303.938 1.008.617 1.814 1.551 2.418 2.801.604 1.243.905 2.802.905 4.677 0 1.826-.294 3.367-.884 4.624-.582 1.25-1.378 2.198-2.386 2.844-1.002.64-2.124.96-3.367.96-.88 0-1.63-.147-2.247-.438-.611-.29-1.112-.657-1.503-1.097a5.592 5.592 0 0 1-.895-1.353h-.138v8.757h-4.538Zm4.442-14.319c0 .973.135 1.822.405 2.546.27.725.66 1.29 1.172 1.694.511.398 1.133.597 1.864.597.739 0 1.364-.203 1.875-.608.512-.411.899-.98 1.161-1.704.27-.732.405-1.573.405-2.525 0-.945-.131-1.776-.394-2.493-.263-.717-.65-1.278-1.161-1.683-.512-.405-1.14-.607-1.886-.607-.738 0-1.363.195-1.875.586-.504.39-.891.944-1.161 1.661-.27.718-.405 1.563-.405 2.536Zm17.28-1.278v9.46h-4.538V26.258h4.411v8.341h.191c.37-.966.966-1.722 1.79-2.269.824-.554 1.857-.83 3.1-.83 1.137 0 2.127.248 2.973.745.852.49 1.512 1.197 1.981 2.12.476.916.71 2.013.703 3.292v10.419h-4.538v-9.61c.007-1.008-.249-1.793-.767-2.354-.512-.561-1.229-.842-2.152-.842-.618 0-1.165.132-1.641.395a2.794 2.794 0 0 0-1.108 1.15c-.263.497-.398 1.098-.405 1.8Zm29.684-7.81h2.631c-.007 1.236-.191 2.273-.554 3.111-.362.831-.976 1.456-1.843 1.875-.859.42-2.035.629-3.526.629v-2.024c.987 0 1.712-.132 2.173-.394a1.82 1.82 0 0 0 .906-1.183c.142-.532.213-1.204.213-2.013Zm-6.701 10.302v-9.396h4.528v16.364h-4.347v-2.973h-.17a4.838 4.838 0 0 1-1.843 2.312c-.853.583-1.893.874-3.122.874-1.094 0-2.056-.249-2.887-.746s-1.481-1.204-1.95-2.12c-.461-.916-.696-2.013-.703-3.292V31.712h4.539v9.61c0 .965.255 1.729.767 2.29.518.561 1.207.842 2.066.842.547 0 1.055-.125 1.524-.373a2.924 2.924 0 0 0 1.15-1.13c.299-.497.448-1.111.448-1.843Zm23.315-10.355h2.706c0 1.804-.429 3.21-1.289 4.22-.859 1-2.241 1.501-4.144 1.501v-1.81c.753 0 1.325-.157 1.715-.47.391-.32.657-.77.799-1.353.142-.582.213-1.278.213-2.088Zm-7.052 17.642c-1.655 0-3.086-.351-4.294-1.054a7.215 7.215 0 0 1-2.78-2.962c-.654-1.271-.98-2.745-.98-4.421 0-1.69.326-3.168.98-4.432.653-1.271 1.58-2.258 2.78-2.962 1.208-.71 2.639-1.065 4.294-1.065 1.655 0 3.082.355 4.282 1.065a7.115 7.115 0 0 1 2.792 2.962c.653 1.264.98 2.742.98 4.432 0 1.676-.327 3.15-.98 4.421a7.198 7.198 0 0 1-2.792 2.962c-1.2.703-2.627 1.054-4.282 1.054Zm.021-3.515c.753 0 1.381-.213 1.886-.64.504-.433.884-1.022 1.14-1.768.262-.746.394-1.594.394-2.546 0-.952-.132-1.8-.394-2.546-.256-.746-.636-1.335-1.14-1.769-.505-.433-1.133-.65-1.886-.65-.76 0-1.399.217-1.918.65-.511.434-.898 1.023-1.161 1.769-.255.745-.383 1.594-.383 2.546 0 .952.128 1.8.383 2.546.263.746.65 1.335 1.161 1.769.519.426 1.158.639 1.918.639Zm14.279-6.264v9.46h-4.539V31.712h4.326V34.6h.191a4.571 4.571 0 0 1 1.822-2.258c.852-.561 1.886-.842 3.1-.842 1.137 0 2.127.249 2.973.746.845.497 1.502 1.207 1.97 2.13.469.917.704 2.01.704 3.282v10.419h-4.539v-9.61c.007-1.001-.248-1.782-.767-2.343-.518-.569-1.232-.853-2.141-.853-.611 0-1.151.132-1.619.395a2.747 2.747 0 0 0-1.087 1.15c-.256.497-.387 1.098-.394 1.8Zm19.696 15.937c-1.471 0-2.731-.202-3.782-.607-1.044-.398-1.875-.941-2.493-1.63a5.015 5.015 0 0 1-1.204-2.323l4.197-.564c.128.326.331.632.608.916.277.284.642.511 1.097.682.462.177 1.023.266 1.683.266.987 0 1.801-.241 2.44-.724.646-.476.969-1.275.969-2.397v-2.994h-.192a4.307 4.307 0 0 1-.894 1.29c-.398.404-.91.734-1.535.99-.625.256-1.37.383-2.237.383-1.228 0-2.347-.284-3.356-.852-1.001-.575-1.8-1.452-2.397-2.631-.589-1.186-.884-2.685-.884-4.496 0-1.854.302-3.402.906-4.645.603-1.243 1.406-2.173 2.407-2.791a6.225 6.225 0 0 1 3.314-.927c.916 0 1.683.156 2.301.469.618.305 1.115.689 1.491 1.15.384.455.679.902.884 1.343h.171v-2.749h4.506v16.524c0 1.392-.341 2.556-1.022 3.494-.682.937-1.627 1.64-2.834 2.11-1.201.475-2.582.713-4.144.713Zm.095-10.12c.732 0 1.35-.182 1.854-.544.512-.37.902-.895 1.172-1.577.277-.689.416-1.512.416-2.471 0-.96-.135-1.79-.405-2.493-.27-.71-.661-1.26-1.172-1.651-.512-.391-1.133-.586-1.865-.586-.745 0-1.374.202-1.885.607-.512.398-.899.952-1.161 1.662-.263.71-.395 1.53-.395 2.46 0 .945.132 1.762.395 2.451.269.682.657 1.21 1.161 1.587.511.37 1.14.554 1.885.554Zm14.86 9.78v-22.5h4.475v2.748h.202c.199-.44.487-.888.863-1.343.383-.461.881-.845 1.491-1.15.618-.313 1.385-.469 2.302-.469 1.193 0 2.294.313 3.302.938 1.009.617 1.815 1.551 2.418 2.801.604 1.243.906 2.802.906 4.677 0 1.826-.295 3.367-.884 4.624-.583 1.25-1.378 2.198-2.387 2.844-1.001.64-2.123.96-3.366.96-.881 0-1.63-.147-2.248-.438-.611-.29-1.111-.657-1.502-1.097a5.563 5.563 0 0 1-.895-1.353h-.138v8.757h-4.539Zm4.443-14.319c0 .973.135 1.822.405 2.546.269.725.66 1.29 1.171 1.694.512.398 1.133.597 1.865.597.738 0 1.363-.203 1.875-.608.511-.411.898-.98 1.161-1.704.27-.732.405-1.573.405-2.525 0-.945-.132-1.776-.394-2.493-.263-.717-.65-1.278-1.162-1.683-.511-.405-1.14-.607-1.885-.607-.739 0-1.364.195-1.875.586-.505.39-.892.944-1.161 1.661-.27.718-.405 1.563-.405 2.536Zm17.28-1.278v9.46h-4.538V26.258h4.41v8.341h.192c.369-.966.966-1.722 1.79-2.269.823-.554 1.857-.83 3.1-.83 1.136 0 2.127.248 2.972.745.852.49 1.513 1.197 1.982 2.12.475.916.71 2.013.703 3.292v10.419h-4.539v-9.61c.007-1.008-.248-1.793-.767-2.354-.511-.561-1.228-.842-2.152-.842-.618 0-1.164.132-1.64.395a2.794 2.794 0 0 0-1.108 1.15c-.263.497-.398 1.098-.405 1.8Zm17.048 9.769c-1.044 0-1.974-.181-2.791-.544a4.499 4.499 0 0 1-1.939-1.63c-.468-.724-.703-1.626-.703-2.706 0-.909.167-1.672.501-2.29a4.051 4.051 0 0 1 1.364-1.492 6.603 6.603 0 0 1 1.96-.852 14.94 14.94 0 0 1 2.322-.405 56.366 56.366 0 0 0 2.301-.277c.583-.092 1.005-.227 1.268-.404.263-.178.394-.44.394-.789v-.064c0-.674-.213-1.196-.639-1.566-.419-.369-1.016-.554-1.79-.554-.816 0-1.466.181-1.949.544-.483.355-.803.802-.959 1.342l-4.197-.34c.213-.995.632-1.855 1.257-2.58.625-.73 1.431-1.292 2.418-1.682.994-.398 2.145-.597 3.452-.597.909 0 1.779.107 2.61.32a6.83 6.83 0 0 1 2.226.99 4.806 4.806 0 0 1 1.545 1.726c.376.696.565 1.53.565 2.504v11.037h-4.304v-2.27h-.128a4.611 4.611 0 0 1-1.055 1.354 4.88 4.88 0 0 1-1.587.905c-.618.213-1.332.32-2.142.32Zm1.3-3.132c.668 0 1.257-.132 1.769-.395.511-.27.912-.632 1.203-1.086.292-.455.437-.97.437-1.545v-1.736a2.428 2.428 0 0 1-.586.255 10.67 10.67 0 0 1-.82.203c-.305.056-.611.11-.916.16-.306.042-.583.081-.831.117a5.618 5.618 0 0 0-1.396.373c-.397.17-.706.4-.927.692-.22.284-.33.64-.33 1.065 0 .618.224 1.09.671 1.417.455.32 1.03.48 1.726.48Zm-.49-15.65 2.259-4.848h4.197l-3.249 4.848h-3.207Zm10.127 24.61v-22.5h4.474v2.748h.202c.199-.44.487-.888.863-1.343.384-.461.881-.845 1.492-1.15.618-.313 1.385-.469 2.301-.469 1.193 0 2.294.313 3.303.938 1.008.617 1.814 1.551 2.418 2.801.604 1.243.905 2.802.905 4.677 0 1.826-.294 3.367-.884 4.624-.582 1.25-1.378 2.198-2.386 2.844-1.002.64-2.124.96-3.367.96-.88 0-1.63-.147-2.248-.438-.61-.29-1.111-.657-1.502-1.097a5.592 5.592 0 0 1-.895-1.353h-.138v8.757h-4.538Zm4.442-14.319c0 .973.135 1.822.405 2.546.27.725.66 1.29 1.172 1.694.511.398 1.133.597 1.864.597.739 0 1.364-.203 1.875-.608.511-.411.899-.98 1.161-1.704.27-.732.405-1.573.405-2.525 0-.945-.131-1.776-.394-2.493-.263-.717-.65-1.278-1.161-1.683-.512-.405-1.14-.607-1.886-.607-.739 0-1.364.195-1.875.586-.504.39-.891.944-1.161 1.661-.27.718-.405 1.563-.405 2.536Zm22.424-13.636v21.818h-4.539V26.258h4.539Zm6.501 22.127c-1.044 0-1.974-.181-2.791-.544a4.493 4.493 0 0 1-1.939-1.63c-.469-.724-.703-1.626-.703-2.706 0-.909.167-1.672.501-2.29a4.057 4.057 0 0 1 1.363-1.492 6.62 6.62 0 0 1 1.961-.852 14.92 14.92 0 0 1 2.322-.405 56.366 56.366 0 0 0 2.301-.277c.583-.092 1.005-.227 1.268-.404.263-.178.394-.44.394-.789v-.064c0-.674-.213-1.196-.639-1.566-.419-.369-1.016-.554-1.79-.554-.817 0-1.466.181-1.949.544-.483.355-.803.802-.959 1.342l-4.198-.34c.213-.995.633-1.855 1.258-2.58.625-.73 1.431-1.292 2.418-1.682.994-.398 2.145-.597 3.452-.597.909 0 1.779.107 2.61.32a6.83 6.83 0 0 1 2.226.99 4.806 4.806 0 0 1 1.545 1.726c.376.696.565 1.53.565 2.504v11.037h-4.304v-2.27h-.128a4.628 4.628 0 0 1-1.055 1.354 4.88 4.88 0 0 1-1.587.905c-.618.213-1.332.32-2.142.32Zm1.3-3.132c.668 0 1.257-.132 1.769-.395.511-.27.912-.632 1.203-1.086.292-.455.437-.97.437-1.545v-1.736a2.428 2.428 0 0 1-.586.255 10.67 10.67 0 0 1-.82.203c-.305.056-.611.11-.916.16-.306.042-.583.081-.831.117a5.618 5.618 0 0 0-1.396.373c-.398.17-.707.4-.927.692-.22.284-.33.64-.33 1.065 0 .618.224 1.09.671 1.417.455.32 1.03.48 1.726.48Zm-.437-15.65-3.249-4.848h4.187l2.269 4.848h-3.207Zm10.074 18.473V31.712h4.325V34.6h.192c.34-.959.909-1.715 1.704-2.269.796-.554 1.747-.83 2.855-.83 1.122 0 2.078.28 2.866.84.788.555 1.314 1.307 1.577 2.26h.17c.334-.938.938-1.688 1.811-2.249.881-.568 1.921-.852 3.122-.852 1.527 0 2.766.487 3.718 1.46.959.965 1.438 2.336 1.438 4.112v11.005h-4.528v-10.11c0-.91-.241-1.591-.724-2.046-.483-.454-1.087-.682-1.811-.682-.824 0-1.467.263-1.929.789-.461.518-.692 1.204-.692 2.056v9.993h-4.4V37.87c0-.803-.231-1.442-.692-1.918-.455-.476-1.055-.714-1.801-.714-.504 0-.959.128-1.363.384-.398.248-.714.6-.949 1.055-.234.447-.351.973-.351 1.576v9.823h-4.538Zm45.962-16.364-5.721 16.364h-5.114l-5.721-16.364h4.795l3.398 11.708h.17l3.388-11.708h4.805Zm.522 16.364V31.712h4.539v16.364h-4.539Zm2.28-18.473a2.464 2.464 0 0 1-1.736-.671c-.476-.455-.714-.998-.714-1.63 0-.625.238-1.162.714-1.609a2.443 2.443 0 0 1 1.736-.682c.675 0 1.25.227 1.726.682.483.447.724.984.724 1.609 0 .632-.241 1.175-.724 1.63-.476.447-1.051.67-1.726.67Zm11.552 18.792c-1.684 0-3.133-.34-4.347-1.022a7.004 7.004 0 0 1-2.791-2.92c-.654-1.264-.98-2.759-.98-4.484 0-1.684.326-3.16.98-4.432.653-1.272 1.573-2.262 2.759-2.973 1.193-.71 2.592-1.065 4.197-1.065 1.08 0 2.085.174 3.015.522a6.687 6.687 0 0 1 2.451 1.545c.703.689 1.25 1.555 1.64 2.6.391 1.036.586 2.25.586 3.643v1.246h-13.817v-2.812h9.545c0-.654-.142-1.233-.426-1.737a3.052 3.052 0 0 0-1.182-1.182c-.498-.291-1.076-.437-1.737-.437-.689 0-1.3.16-1.832.48a3.357 3.357 0 0 0-1.236 1.267 3.582 3.582 0 0 0-.458 1.758v2.674c0 .81.149 1.51.447 2.099a3.27 3.27 0 0 0 1.289 1.363c.554.32 1.211.48 1.971.48.504 0 .966-.071 1.385-.213a2.874 2.874 0 0 0 1.076-.64 2.78 2.78 0 0 0 .682-1.044l4.197.277a5.736 5.736 0 0 1-1.31 2.642c-.653.746-1.499 1.328-2.536 1.748-1.029.411-2.219.617-3.568.617Zm1.853-18.643-2.141-2.6-2.141 2.6h-3.868v-.15l4.315-4.687h3.377l4.325 4.688v.149h-3.867Zm-2.13 24.45a2.467 2.467 0 0 1-1.737-.672c-.483-.447-.724-.987-.724-1.619s.241-1.172.724-1.62a2.467 2.467 0 0 1 1.737-.67c.674 0 1.25.223 1.725.67.483.448.725.988.725 1.62 0 .632-.242 1.172-.725 1.62-.475.447-1.051.67-1.725.67Zm16.342-5.807c-1.676 0-3.118-.355-4.325-1.065a7.202 7.202 0 0 1-2.77-2.983c-.639-1.271-.959-2.734-.959-4.39 0-1.675.323-3.145.97-4.41.653-1.27 1.58-2.262 2.78-2.972 1.201-.717 2.628-1.076 4.283-1.076 1.428 0 2.678.26 3.75.778s1.921 1.246 2.546 2.184c.625.937.97 2.038 1.034 3.302h-4.283c-.121-.816-.441-1.473-.959-1.97-.511-.505-1.182-.757-2.013-.757-.704 0-1.318.192-1.844.575-.518.377-.923.927-1.214 1.652-.291.724-.437 1.601-.437 2.631 0 1.044.142 1.932.426 2.663.292.732.7 1.29 1.225 1.673.526.383 1.14.575 1.844.575a2.98 2.98 0 0 0 1.395-.32 2.699 2.699 0 0 0 1.034-.926c.277-.412.458-.906.543-1.481h4.283c-.072 1.25-.412 2.35-1.023 3.302-.604.945-1.438 1.684-2.504 2.216-1.065.533-2.326.8-3.782.8Zm13.558-.32V31.713h4.325V34.6h.192c.341-.959.909-1.715 1.704-2.269.796-.554 1.747-.83 2.855-.83 1.122 0 2.078.28 2.866.84.788.555 1.314 1.307 1.577 2.26h.17c.334-.938.938-1.688 1.811-2.249.881-.568 1.921-.852 3.122-.852 1.527 0 2.766.487 3.718 1.46.959.965 1.438 2.336 1.438 4.112v11.005h-4.528v-10.11c0-.91-.241-1.591-.724-2.046-.483-.454-1.087-.682-1.811-.682-.824 0-1.467.263-1.928.789-.462.518-.693 1.204-.693 2.056v9.993h-4.4V37.87c0-.803-.231-1.442-.692-1.918-.455-.476-1.055-.714-1.801-.714a2.5 2.5 0 0 0-1.363.384c-.398.248-.714.6-.948 1.055-.235.447-.352.973-.352 1.576v9.823h-4.538Zm30.229.31c-1.044 0-1.974-.181-2.791-.544a4.493 4.493 0 0 1-1.939-1.63c-.469-.724-.703-1.626-.703-2.706 0-.909.167-1.672.501-2.29a4.049 4.049 0 0 1 1.363-1.492 6.614 6.614 0 0 1 1.96-.852 14.954 14.954 0 0 1 2.323-.405 56.366 56.366 0 0 0 2.301-.277c.582-.092 1.005-.227 1.268-.404.262-.178.394-.44.394-.789v-.064c0-.674-.213-1.196-.639-1.566-.419-.369-1.016-.554-1.79-.554-.817 0-1.467.181-1.95.544-.483.355-.802.802-.958 1.342l-4.198-.34c.213-.995.632-1.855 1.257-2.58.625-.73 1.431-1.292 2.419-1.682.994-.398 2.144-.597 3.451-.597.909 0 1.779.107 2.61.32a6.828 6.828 0 0 1 2.227.99 4.825 4.825 0 0 1 1.545 1.726c.376.696.564 1.53.564 2.504v11.037h-4.304v-2.27h-.128a4.608 4.608 0 0 1-1.054 1.354c-.441.383-.97.685-1.588.905-.618.213-1.331.32-2.141.32Zm1.3-3.132c.667 0 1.257-.132 1.768-.395a3.13 3.13 0 0 0 1.204-1.086c.291-.455.437-.97.437-1.545v-1.736a2.446 2.446 0 0 1-.586.255c-.242.071-.515.139-.82.203-.306.056-.611.11-.917.16l-.831.117a5.622 5.622 0 0 0-1.395.373c-.398.17-.707.4-.927.692-.22.284-.33.64-.33 1.065 0 .618.223 1.09.671 1.417.454.32 1.03.48 1.726.48Zm-1.907-15.554-2.525-.032c0-1.357.334-2.397 1.001-3.122.675-.724 1.495-1.09 2.461-1.097.497 0 .924.082 1.279.245.362.156.685.34.969.554.291.213.568.401.831.565.263.156.547.234.852.234.412-.007.725-.16.938-.458.22-.306.33-.703.33-1.193l2.482.074c-.014 1.343-.355 2.38-1.022 3.111-.668.725-1.481 1.09-2.44 1.097-.533 0-.98-.078-1.342-.234a4.96 4.96 0 0 1-.938-.554 9.686 9.686 0 0 0-.788-.565 1.568 1.568 0 0 0-.863-.245c-.369 0-.668.146-.895.437-.22.291-.33.686-.33 1.183Zm11.543 18.377V31.712h4.539v16.364h-4.539Zm2.28-18.473a2.464 2.464 0 0 1-1.736-.671c-.476-.455-.714-.998-.714-1.63 0-.625.238-1.162.714-1.609a2.443 2.443 0 0 1 1.736-.682c.675 0 1.25.227 1.726.682.483.447.724.984.724 1.609 0 .632-.241 1.175-.724 1.63-.476.447-1.051.67-1.726.67Zm9.237 18.473V31.712h4.326V34.6h.191c.341-.959.909-1.715 1.705-2.269.795-.554 1.747-.83 2.855-.83 1.122 0 2.077.28 2.866.84.788.555 1.314 1.307 1.577 2.26h.17c.334-.938.937-1.688 1.811-2.249.881-.568 1.921-.852 3.122-.852 1.527 0 2.766.487 3.718 1.46.958.965 1.438 2.336 1.438 4.112v11.005h-4.528v-10.11c0-.91-.241-1.591-.724-2.046-.483-.454-1.087-.682-1.811-.682-.824 0-1.467.263-1.929.789-.461.518-.692 1.204-.692 2.056v9.993h-4.4V37.87c0-.803-.231-1.442-.693-1.918-.454-.476-1.054-.714-1.8-.714a2.5 2.5 0 0 0-1.364.384c-.397.248-.713.6-.948 1.055-.234.447-.351.973-.351 1.576v9.823h-4.539Zm30.23.309c-1.044 0-1.975-.181-2.791-.544a4.493 4.493 0 0 1-1.939-1.63c-.469-.724-.703-1.626-.703-2.706 0-.909.167-1.672.5-2.29a4.06 4.06 0 0 1 1.364-1.492 6.614 6.614 0 0 1 1.96-.852 14.954 14.954 0 0 1 2.323-.405 56.808 56.808 0 0 0 2.301-.277c.582-.092 1.005-.227 1.268-.404.262-.178.394-.44.394-.789v-.064c0-.674-.213-1.196-.639-1.566-.419-.369-1.016-.554-1.79-.554-.817 0-1.467.181-1.95.544a2.504 2.504 0 0 0-.959 1.342l-4.197-.34c.213-.995.632-1.855 1.257-2.58.625-.73 1.431-1.292 2.418-1.682.995-.398 2.145-.597 3.452-.597.909 0 1.779.107 2.61.32.838.213 1.58.543 2.227.99a4.813 4.813 0 0 1 1.544 1.726c.377.696.565 1.53.565 2.504v11.037h-4.304v-2.27h-.128a4.625 4.625 0 0 1-1.054 1.354c-.441.383-.97.685-1.588.905-.618.213-1.331.32-2.141.32Zm1.3-3.132c.667 0 1.257-.132 1.768-.395.511-.27.913-.632 1.204-1.086.291-.455.437-.97.437-1.545v-1.736a2.446 2.446 0 0 1-.586.255c-.242.071-.515.139-.821.203-.305.056-.61.11-.916.16l-.831.117a5.61 5.61 0 0 0-1.395.373c-.398.17-.707.4-.927.692-.22.284-.33.64-.33 1.065 0 .618.223 1.09.671 1.417.454.32 1.03.48 1.726.48Zm-1.907-15.554-2.525-.032c0-1.357.334-2.397 1.001-3.122.675-.724 1.495-1.09 2.461-1.097.497 0 .923.082 1.279.245.362.156.685.34.969.554.291.213.568.401.831.565.263.156.547.234.852.234.412-.007.725-.16.938-.458.22-.306.33-.703.33-1.193l2.482.074c-.014 1.343-.355 2.38-1.022 3.111-.668.725-1.481 1.09-2.44 1.097-.533 0-.98-.078-1.342-.234a4.928 4.928 0 0 1-.938-.554 9.863 9.863 0 0 0-.788-.565 1.57 1.57 0 0 0-.863-.245c-.37 0-.668.146-.895.437-.22.291-.33.686-.33 1.183Zm11.543 18.377V31.712h4.538v16.364h-4.538Zm2.28-18.473a2.466 2.466 0 0 1-1.737-.671c-.476-.455-.713-.998-.713-1.63 0-.625.237-1.162.713-1.609a2.445 2.445 0 0 1 1.737-.682c.675 0 1.25.227 1.726.682.483.447.724.984.724 1.609 0 .632-.241 1.175-.724 1.63-.476.447-1.051.67-1.726.67Z"/>
  <defs>
    <linearGradient id="a" x1="0" x2="762" y1="37.076" y2="37.076" gradientUnits="userSpaceOnUse">
      <stop stop-color="#0B7077"/>
      <stop offset="1" stop-color="#AEAEAE"/>
    </linearGradient>
  </defs>
</svg>
