<svg xmlns="http://www.w3.org/2000/svg" width="245" height="1046" fill="none" viewBox="0 0 245 1046">
  <g opacity=".6">
    <path stroke="#0B7077" d="M609.354 172.156c86.099 17.712 178.916 23.551 235.457 87.599 66.597 75.438 111.808 176.988 87.818 278.596-24.766 104.892-116.302 181.163-210.287 240.107-95.986 60.199-202.964 99.173-312.217 87.589-122.794-13.02-260.779-46.408-312.864-153.868C46.52 607.49 118.867 483.14 171.003 372.7c41.417-87.734 97.703-172.167 187.1-213.066 81.244-37.169 166.731-4.865 251.251 12.522Z" clip-rule="evenodd"/>
    <path stroke="#0B7077" d="M671.847 130.632c111.99 24.749 171.76 136.114 216.112 238.84 38.623 89.459 40.946 189.188 10.404 285.811-29.621 93.709-82.617 188.543-173.701 230.797-85.067 39.463-170.31-21.784-261.328-28.987-120.528-9.538-269.605 66.167-348.922-19.306-81.187-87.49-42.49-236.191 4.219-352.153 42.015-104.31 135.757-172.957 232.222-234.859 100.452-64.461 208.839-144.929 320.994-120.143Z" clip-rule="evenodd"/>
    <path stroke="#0B7077" d="M688.523 155.031c109.228-.551 220.564 63.847 257.957 162.132 35.307 92.806-52.14 187.167-88.174 284.143-31.131 83.779-34.874 178.513-105.302 236.536-80.099 65.989-189.712 113.733-284.788 84.841-91.979-27.951-106.324-141.837-158.959-219.687-59.009-87.278-200.636-153.053-163.095-256.653 37.988-104.833 201.774-72.834 301.996-126.665 88.824-47.708 141.796-164.15 240.365-164.647Z" clip-rule="evenodd"/>
    <path stroke="#0B7077" d="M639.699 140.513c103.464 16.059 178.833 102.208 218.397 195.966 35.462 84.038-6.268 176.142-22.291 268.767-19.587 113.233 16.995 255.105-80.148 323.419-97.717 68.718-220.095-9.383-332.606-33.157-113.703-24.025-260.76-5.546-316.402-103.98-55.479-98.146 20.122-222.557 71.413-329.423 40.518-84.421 105.922-148.273 183.945-202.626 86.21-60.057 177.39-134.535 277.692-118.966Z" clip-rule="evenodd"/>
    <path stroke="#0B7077" d="M616.193 182.402c77.765 27.013 170.565 22.859 220.97 85.837 56.01 69.98 61.252 164.326 52.722 256.122-11.139 119.884-10.091 257.416-107.706 335.625-104.034 83.351-251.501 83.967-375.173 51.255-118.584-31.366-217.728-111.596-266.774-221.055-44.936-100.285-12.13-215.074 22.531-324.034 33.27-104.587 63.938-231.887 167.686-273.93 100.159-40.589 187.834 56.169 285.744 90.18Z" clip-rule="evenodd"/>
    <path stroke="#0B7077" d="M596.433 234.148c108.047 19.274 262.34-27.01 308.081 69.361 46.239 97.419-92.86 192.548-133.948 297.513-33.557 85.727-1.668 201.859-81.115 251.899-79.613 50.143-170.697-20.823-260.019-37.037-95.431-17.323-221.236 19.042-272.787-59.68-51.784-79.078 27.199-182.342 52.042-277.413 25.987-99.445 4.965-226.224 94.295-282.586 89.571-56.514 192.832 19.994 293.451 37.943Z" clip-rule="evenodd"/>
    <path stroke="#0B7077" d="M612.105 198.457c78.086 21.275 134.669 74.628 184.461 135.925 61.61 75.846 138.098 150.738 129.7 250.829-9.664 115.181-67.518 242.711-175.482 294.809-104.256 50.308-211.4-25.273-318.008-56.679-94.128-27.729-199.518-36.421-257.404-112.832-63.275-83.525-94.249-198.074-55.985-300.85 36.596-98.295 142.244-152.251 240.33-194.296 81.901-35.106 169.634-39.452 252.388-16.906Z" clip-rule="evenodd"/>
    <path stroke="#0B7077" d="M607.779 183.555c91.379 21.537 146.406 101.643 193.488 180.001 47.634 79.275 87.217 165.346 70.582 259.479-18.42 104.24-64.299 220.972-163.506 266.375-95.358 43.643-192.577-23.988-285.787-60.747-72.419-28.56-138.231-63.319-184.023-124.532-52.304-69.918-105.761-149.234-87.005-237.768 19.601-92.527 99.614-161.567 182.484-212.934 83.999-52.067 181.262-91.677 273.767-69.874Z" clip-rule="evenodd"/>
  </g>
</svg>
