<svg xmlns="http://www.w3.org/2000/svg" width="201" height="201" fill="none" viewBox="0 0 201 201">
  <circle cx="100.5" cy="100.5" r="100.5" fill="#0B7077"/>
  <path fill="#fff" d="M94.538 158v2.947h9.103v2.947h-8.776v2.925h8.776v2.86h-9.103v2.947h12.378V158H94.538Z"/>
  <path fill="#fff" d="m90.861 158.26-3.561 2.949-.17-.039-2.015-4.222-3.895-.889 3.057 6.229-.044.191-5.446 4.243 3.852.879 3.566-2.97.17.039 2.01 4.243 3.895.889-3.052-6.25.039-.17 5.446-4.243-3.852-.879Zm-11.927-6.374-2.89 5.999-.137-.067c.5-1.892-.22-3.619-2.501-4.718-2.97-1.43-5.579-.239-7.085 2.888-1.506 3.128-.78 5.948 2.249 7.407 2.32 1.117 4.062.721 5.326-.997l.196.095-1.297 2.694 2.733 1.317 6.356-13.197-2.95-1.421Zm-3.912 8.123-.076.157c-.843 1.75-2.139 1.926-4.046 1.007-1.869-.9-2.46-1.936-1.589-3.745.862-1.79 2.05-1.993 3.938-1.084 1.849.891 2.588 1.973 1.773 3.665Zm-13.484-12.264-9.12 11.435 2.561 2.042 9.12-11.436-2.56-2.041Zm-10.797-8.854c-2.327-2.918-5.633-3.493-8.33-1.342-2.73 2.177-2.89 5.515-.562 8.433 2.328 2.919 5.617 3.507 8.347 1.329 2.697-2.15 2.873-5.501.545-8.42Zm-2.27 1.81c1.388 1.741 1.2 2.869-.303 4.067-1.502 1.198-2.678 1.158-4.066-.582-1.375-1.724-1.165-2.897.337-4.094 1.502-1.198 2.657-1.115 4.032.609Zm-5.246-11.954-5.704 2.746c-1.24.597-2.076.419-2.71-.899-.578-1.2-.315-1.86.767-2.381l1.023-.492-1.421-2.95-1.633.786c-1.927.928-3.006 2.562-1.945 4.765.957 1.986 2.678 2.441 4.404 1.95l.085.177-2.616 1.259 1.317 2.734 9.853-4.745-1.42-2.95Zm-5.921-15.611c-.772-3.384-2.905-5.271-5.224-4.741l-.234.053.728 3.193.213-.049c.915-.209 1.555.339 1.988 2.233.47 2.065-.057 2.991-1.676 3.45l-1.982-8.683c-.372.04-.658.061-1.041.148-3.341.763-4.642 3.5-3.846 6.991.802 3.511 3.5 5.426 6.906 4.648 3.788-.864 4.98-3.689 4.168-7.243Zm-8.569 2.09c-.427-1.873-.004-2.865 1.38-3.271l1.293 5.662c-1.418.166-2.24-.497-2.673-2.391Zm8.397-25.59-7.236-1.651-2.264-.383.054-.234 2.424-.32 7.065-1.522.884-3.873-5.705-4.437-2.045-1.34.053-.235 2.21.617 7.236 1.652.73-3.193-14.26-3.254-.991 4.341 6.285 4.838 3.045 2.061-.054.234-3.647.578-7.786 1.739-.986 4.32 14.26 3.255.728-3.193Z"/>
  <path fill="#fff" d="M44.558 71.989c1.62-3.363.703-6.591-2.405-8.088-3.147-1.515-6.222-.21-7.842 3.153-1.62 3.363-.722 6.582 2.425 8.097 3.107 1.497 6.202.201 7.822-3.162Zm-2.616-1.26c-.966 2.006-2.065 2.325-3.795 1.492-1.731-.834-2.206-1.91-1.24-3.917.957-1.986 2.104-2.306 3.835-1.472 1.73.833 2.157 1.91 1.2 3.897Zm9.754-8.169-4.95-3.947c-1.075-.857-1.277-1.689-.365-2.832.83-1.041 1.54-1.09 2.478-.342l.887.708 2.042-2.56-1.417-1.13c-1.672-1.334-3.613-1.596-5.137.315-1.375 1.724-1.038 3.472.154 4.814l-.122.153-2.27-1.81-1.892 2.372 8.55 6.82 2.042-2.56Zm12.491-9.138c2.714-2.164 3.488-4.904 2.005-6.765l-.15-.187-2.56 2.041.136.17c.585.735.37 1.55-1.15 2.76-1.655 1.32-2.719 1.248-3.835-.012l6.964-5.553c-.198-.318-.34-.567-.586-.874-2.136-2.68-5.167-2.664-7.966-.431-2.816 2.245-3.37 5.507-1.193 8.238 2.423 3.038 5.485 2.886 8.335.613Zm-5.601-6.814c1.502-1.198 2.58-1.247 3.546-.175l-4.54 3.62c-.765-1.204-.525-2.233.994-3.445Zm32.559-7.105-.627-2.746-7.938 1.812.627 2.746 7.938-1.812Zm28.218 7.304.655-2.873-8.874-2.025.655-2.873 8.556 1.952.651-2.852-8.556-1.952.637-2.788 8.874 2.025.656-2.873-12.067-2.754-3.255 14.26 12.068 2.753Zm4 .733 4.129-2.083.157.076 1.024 4.564 3.6 1.733-1.594-6.752.085-.177 6.254-2.924-3.56-1.715-4.138 2.102-.157-.075-1.015-4.584-3.6-1.733 1.585 6.772-.076.157-6.254 2.924 3.56 1.715Zm11.117 8.355 4.152-5.205.119.095c-.908 1.734-.591 3.578 1.389 5.156 2.577 2.055 5.385 1.475 7.549-1.239 2.164-2.713 2.085-5.625-.543-7.72-2.014-1.607-3.801-1.608-5.415-.214l-.17-.136 1.864-2.338-2.372-1.892-9.133 11.452 2.56 2.041Zm5.622-7.048.108-.137c1.212-1.519 2.514-1.401 4.17-.081 1.621 1.293 1.967 2.434.715 4.005-1.238 1.553-2.442 1.486-4.08.18-1.605-1.28-2.084-2.5-.913-3.967Zm10.504 15.138 11.435-9.12-2.042-2.56-11.435 9.12 2.042 2.56Zm7.981 12.112c1.62 3.363 4.715 4.66 7.823 3.163 3.147-1.516 4.044-4.734 2.424-8.098-1.619-3.363-4.695-4.668-7.842-3.153-3.107 1.497-4.024 4.725-2.405 8.088Zm2.616-1.26c-.966-2.006-.53-3.063 1.201-3.897 1.73-.833 2.868-.533 3.834 1.473.957 1.986.492 3.083-1.239 3.916-1.731.834-2.839.495-3.796-1.491Zm2.399 12.906 6.172-1.409c1.341-.306 2.117.054 2.443 1.48.296 1.299-.108 1.883-1.278 2.15l-1.107.253.729 3.192 1.766-.403c2.086-.476 3.501-1.829 2.957-4.212-.491-2.15-2.068-2.977-3.859-2.881l-.044-.192 2.83-.646-.675-2.958-10.662 2.434.728 3.192Zm2.263 16.61c0 3.471 1.659 5.785 4.038 5.785h.24v-3.275h-.218c-.939 0-1.441-.677-1.441-2.619 0-2.118.721-2.904 2.402-2.991v8.906c.371.044.654.088 1.047.088 3.428 0 5.305-2.38 5.305-5.96 0-3.602-2.205-6.069-5.698-6.069-3.885 0-5.675 2.489-5.675 6.135Zm8.819-.131c0 1.921-.633 2.794-2.074 2.881v-5.806c1.419.152 2.074.982 2.074 2.925Zm-15.575 22.1 6.687 3.221 2.122.876-.104.216-2.434-.227-7.227-.088-1.724 3.58 4.575 5.595 1.695 1.761-.104.217-2.018-1.093-6.687-3.221-1.42 2.95 13.177 6.346 1.932-4.012-5.05-6.115-2.511-2.687.105-.216 3.684.248 7.978.038 1.922-3.993-13.177-6.346-1.421 2.95Z"/>
  <path fill="#fff" d="M148.128 141.772c-2.327 2.919-2.152 6.27.545 8.42 2.731 2.178 6.02 1.59 8.347-1.328 2.327-2.919 2.169-6.256-.562-8.434-2.697-2.15-6.003-1.576-8.33 1.342Zm2.27 1.811c1.388-1.741 2.53-1.808 4.032-.61 1.502 1.198 1.725 2.353.337 4.094-1.375 1.724-2.564 1.78-4.066.582-1.502-1.197-1.678-2.343-.303-4.066Zm-9.956 11.896a1.253 1.253 0 0 1-.196.13c-.163.093-.346.011-.549-.244l4.717-3.762.345.434a2.56 2.56 0 0 0-.357.339c-.335.376-.308.809.082 1.298l4.333 5.434.966-.771.346.433-2.917 2.326-1.353-1.457c.126.409.179.839.158 1.292-.088.961-.476 1.716-1.165 2.266a2.211 2.211 0 0 1-.457.282c-.659.29-1.211.157-1.654-.399a1.36 1.36 0 0 1-.259-.53c-.148-.572.001-1.036.445-1.391.134-.106.269-.187.407-.242.304-.097.698-.048 1.181.148.349.141.584.162.706.065a.704.704 0 0 0 .177-.223c.285-.646.001-1.583-.851-2.811l-2.871-3.6-1.234.983Zm-15.585-.981c-3.127 1.506-4.492 4.005-3.46 6.149l.104.216 2.951-1.42-.095-.197c-.407-.846-.016-1.592 1.735-2.435 1.908-.919 2.928-.61 3.736.866l-8.024 3.864c.121.354.205.628.376.982 1.487 3.088 4.445 3.747 7.671 2.194 3.245-1.563 4.511-4.62 2.995-7.766-1.686-3.501-4.704-4.034-7.989-2.453Zm3.944 7.889c-1.73.834-2.792.642-3.495-.618l5.231-2.519c.478 1.345.015 2.294-1.736 3.137Zm-2.279-65.782c3.768 2.176 3.768 7.615 0 9.79l-31.794 18.356c-3.768 2.176-8.478-.544-8.478-4.895V83.144c0-4.35 4.71-7.07 8.478-4.895l31.794 18.356Z"/>
</svg>
