<svg xmlns="http://www.w3.org/2000/svg" width="559" height="698" fill="none" viewBox="0 0 559 698">
  <g opacity=".6">
    <path stroke="#fff" d="M590.096 152.74c90.337 21.23 186.844 31.686 249.641 94.783 73.966 74.32 127.515 171.979 109.403 265.98-18.696 97.039-108.437 163.655-201.861 213.89-95.414 51.305-203.617 82.115-317.527 65.39-128.027-18.799-273.135-57.514-334.194-161.084-59.485-100.9 7.199-213.634 53.872-314.408 37.078-80.055 89.773-156.216 179.642-189.775 81.673-30.497 172.343 4.384 261.024 25.224Z" clip-rule="evenodd"/>
    <path stroke="#fff" d="M652.805 115.193c118.268 29.381 187.925 137.615 240.951 236.872 46.178 86.437 55.238 180.599 29.868 270.058-24.604 86.761-73.475 173.321-165.511 208.247-85.955 32.619-178.801-29.733-274.061-41.437-126.145-15.499-276.344 47.838-364.631-37.038-90.37-86.877-59.975-225.001-19.059-331.824 36.805-96.087 129.85-155.756 226.181-208.918 100.311-55.36 207.82-125.384 326.262-95.96Z" clip-rule="evenodd"/>
    <path stroke="#fff" d="M671.929 138.842c113.804 5.381 234.134 72.165 279.655 166.931 42.983 89.483-41.868 173.802-72.961 263.366-26.863 77.376-24.451 166.569-93.986 217.517-79.083 57.943-190.144 97.074-291.16 64.674-97.727-31.345-120.268-139.588-180.313-215.895-67.317-85.547-219.31-155.267-187.087-251 32.606-96.872 205.442-57.828 306.309-103.211 89.395-40.221 136.845-147.238 239.543-142.382Z" clip-rule="evenodd"/>
    <path stroke="#fff" d="M620.15 122.284c108.981 20.758 193.333 106.177 240.848 196.846 42.59 81.269 5.208 165.98-5.327 252.573-12.879 105.859 34.736 241.797-62.026 301.049-97.334 59.602-230.179-20.76-349.109-49.291-120.192-28.833-272.335-19.335-336.931-115.289-64.407-95.672 6.147-209.057 52.515-307.19 36.63-77.522 100.587-134.277 178.339-181.381 85.909-52.046 176.042-117.44 281.691-97.317Z" clip-rule="evenodd"/>
    <path stroke="#fff" d="M598.321 160.927c82.8 29.676 179.186 30.768 235.884 92.887 63.003 69.027 74.747 158.292 71.977 244.409-3.618 112.467 6.635 242.237-89.833 310.73-102.812 72.996-256.376 65.615-387.374 28.085-125.609-35.986-234.223-117.007-292.602-222.892-53.486-97.01-26.961-203.502 1.884-304.396 27.688-96.845 51.153-215.253 156.419-249.304C396.3 27.572 494.07 123.563 598.321 160.927Z" clip-rule="evenodd"/>
    <path stroke="#fff" d="M581.081 209.065c113.643 23.975 271.017-11.296 324.996 81.925 54.564 94.234-83.76 176.324-119.506 272.959-29.195 78.923 11.692 190.008-67.598 232.85-79.456 42.932-178.897-28.808-272.864-48.892-100.394-21.457-228.803 6.009-287.648-70.905-59.112-77.261 16.155-170.252 35.667-258.445 20.409-92.25-9.886-212.776 79.261-261.039 89.389-48.394 201.861 29.221 307.692 51.547Z" clip-rule="evenodd"/>
    <path stroke="#fff" d="M594.371 179.048c81.915 24.022 143.773 76.829 199.154 136.687 68.526 74.064 152.328 148.032 150.27 240.98-2.37 106.963-53.611 222.874-161.493 265.721-104.178 41.376-219.633-34.873-331.625-69.872-98.879-30.902-208.117-44.642-272.839-119.034-70.749-81.319-110.238-189.861-77.563-283.72 31.251-89.767 136.623-134.472 234.983-168.466 82.13-28.384 172.302-27.754 259.113-2.296Z" clip-rule="evenodd"/>
    <path stroke="#fff" d="M589.342 162.774c96.227 25.147 158.629 103.365 212.674 179.515 54.677 77.039 101.453 160.032 90.445 247.577-12.191 96.944-52.039 204.148-151.943 241.473-96.028 35.876-201.373-32.89-300.51-72.436-77.024-30.725-147.605-66.918-199.173-126.891-58.901-68.5-119.623-145.891-106.042-228.062 14.194-85.876 92.617-146.439 175.178-190.244 83.685-44.402 181.958-76.388 279.371-50.932Z" clip-rule="evenodd"/>
  </g>
</svg>
