<svg xmlns="http://www.w3.org/2000/svg" width="1260" height="255" fill="none" viewBox="0 0 1260 255">
  <g opacity=".6">
    <path stroke="#fff" d="M744.697-583.565c79.642 13.504 166.837 14.61 213.847 76.678 55.366 73.106 87.876 173.825 54.936 278.196-34.013 107.745-128.285 189.91-223.123 254.615-96.859 66.083-201.97 111.195-304.13 105.112-114.822-6.837-241.955-33.558-280.368-139.917-37.423-103.617 43.554-233.582 104.011-348.38 48.027-91.195 109.784-179.812 198.462-225.965 80.591-41.943 158.182-13.596 236.365-.339Z" clip-rule="evenodd"/>
    <path stroke="#fff" d="M806.407-626.86c102.571 19.198 147.504 128.549 178.838 229.976 27.285 88.328 19.495 188.902-18.804 288.039-37.148 96.148-96.333 194.64-185.99 242.013-83.734 44.244-157.569-13.187-242.221-15.752-112.098-3.398-259.494 80.749-325.348-1.45-67.408-84.138-16.25-236.279 39.15-355.78 49.832-107.491 144.62-181.65 241.287-249.14 100.663-70.279 210.368-157.131 313.088-137.906Z" clip-rule="evenodd"/>
    <path stroke="#fff" d="M819.352-602.809c102.377-6.201 200.248 53.019 225.468 150.25 23.81 91.81-67.519 191.535-110.951 291.24-37.523 86.136-50.482 181.91-122.246 244.091-81.619 70.719-189.065 124.554-275.246 100.318-83.375-23.447-85.449-137.61-126.987-213.436-46.569-85.008-172.678-144.051-127.173-250.518 46.046-107.732 196.283-83.912 295.54-143.403 87.967-52.726 149.209-172.946 241.595-178.542Z" clip-rule="evenodd"/>
    <path stroke="#fff" d="M774.896-614.702c95.22 10.849 157.163 93.824 184.842 186.32 24.81 82.907-23.419 177.934-47.643 272.16-29.614 115.188-9.52 256.354-107.232 330.255-98.29 74.339-205.026 1.908-307.942-16.252-104.007-18.353-243.462 7.877-285.72-88.504-42.135-96.099 41.009-225.453 99.656-335.859C357.186-353.8 424.753-421.563 503.183-480.4c86.658-65.01 179.405-144.819 271.713-134.302Z" clip-rule="evenodd"/>
    <path stroke="#fff" d="M748.979-571.628c70.212 23.247 157.635 14.256 198.604 75.222 45.524 67.745 41.015 162.711 23.848 255.814C949.012-119 936.257 19.776 836.922 103.77c-105.866 89.518-244.191 97.764-356.876 71.137C371.997 149.376 287.054 73.515 252.003-34.442c-32.114-98.908 10.11-216.477 53.491-328.258 41.641-107.294 83.11-237.382 184.582-285.186 97.962-46.151 170.501 46.988 258.903 76.258Z" clip-rule="evenodd"/>
    <path stroke="#fff" d="M725.543-518.795c99.62 13.891 249.272-40.884 282.607 54.168 33.7 96.086-106.564 199.451-155.697 307.686C812.326-68.543 830.663 47.203 750.98 101.9c-79.849 54.811-158.347-12.213-240.674-23.98-87.958-12.57-209.841 30.702-250.406-46.209-40.748-77.258 43.83-185.735 76.704-283.127 34.387-101.873 27.329-228.945 116.934-290.544 89.847-61.766 179.234 10.229 272.005 23.165Z" clip-rule="evenodd"/>
    <path stroke="#fff" d="M745.493-558.607c72.178 17.625 120.618 69.084 161.785 129 50.937 74.135 116.142 146.522 97.952 249.031-20.919 117.965-88.978 251.035-197.068 309.791-104.378 56.738-198.693-14.753-296.995-41.224-86.793-23.37-186.246-26.742-233.58-101.647-51.742-81.88-69.573-197.082-22.684-303.886 44.844-102.148 150.919-162.679 248.581-210.669 81.548-40.07 165.517-49.075 242.009-30.396Z" clip-rule="evenodd"/>
    <path stroke="#fff" d="M741.727-571.311c84.03 17.082 127.875 95.39 164.404 172.338 36.955 77.849 65.633 163.001 40.47 259.237-27.864 106.569-82.887 227.217-181.036 278.364-94.341 49.163-179.242-14.317-263.467-46.726-65.439-25.18-124.021-56.983-161.057-116.628-42.303-68.126-84.748-145.715-58.147-236.388 27.799-94.762 110.221-168.861 193.561-225.203 84.473-57.109 180.207-102.286 265.272-84.994Z" clip-rule="evenodd"/>
  </g>
</svg>
