<svg xmlns="http://www.w3.org/2000/svg" width="1039" height="959" fill="none" viewBox="0 0 1039 959">
  <g opacity=".6">
    <path stroke="#FFFBFB" d="M588.286 152.799c90.514 21.355 187.176 31.864 250.235 95.371 74.275 74.802 128.173 173.104 110.308 267.735C930.386 613.596 840.72 680.673 747.32 731.26c-95.39 51.664-203.645 82.7-317.749 65.883-128.246-18.901-273.653-57.848-335.087-162.099-59.851-101.563 6.595-215.061 53.04-316.516 36.896-80.596 89.44-157.276 179.329-191.074 81.691-30.716 172.578 4.382 261.433 25.345Z" clip-rule="evenodd"/>
    <path stroke="#FFFBFB" d="M650.995 114.992c118.534 29.554 188.61 138.496 242.003 238.404 46.498 87.004 55.843 181.792 30.692 271.853-24.392 87.344-73.089 174.49-165.164 209.667-85.994 32.853-179.161-29.897-274.601-41.661-126.383-15.578-276.629 48.21-365.296-37.214-90.758-87.439-60.715-226.49-20.044-334.032 36.585-96.736 129.601-156.82 225.926-210.355 100.305-55.748 207.777-126.26 326.484-96.662Z" clip-rule="evenodd"/>
    <path stroke="#FFFBFB" d="M670.222 138.794c113.998 5.395 234.709 72.601 280.575 167.99 43.308 90.071-41.433 174.969-72.317 265.135-26.681 77.897-24.008 167.684-93.506 218.985-79.04 58.345-190.162 97.758-291.43 65.162-97.97-31.535-120.858-140.495-181.218-217.299-67.669-86.104-220.1-156.259-188.104-252.637 32.378-97.524 205.598-58.253 306.492-103.957 89.419-40.507 136.635-148.247 239.508-143.379Z" clip-rule="evenodd"/>
    <path stroke="#FFFBFB" d="M618.317 122.137c109.215 20.875 193.948 106.847 241.801 198.11 42.892 81.802 5.694 167.085-4.608 254.258-12.594 106.566 35.488 243.401-61.257 303.066-97.318 60.019-230.607-20.853-349.81-49.551-120.466-29.002-272.826-19.411-337.802-115.991-64.785-96.297 5.554-210.451 51.714-309.248 36.465-78.045 100.361-135.191 178.101-182.623 85.897-52.41 175.984-118.257 281.861-98.021Z" clip-rule="evenodd"/>
    <path stroke="#FFFBFB" d="M596.56 161.041c83.014 29.858 179.552 30.939 236.516 93.461 63.299 69.474 75.319 159.332 72.792 246.024-3.299 113.217 7.344 243.851-89.076 312.818-102.76 73.503-256.582 66.102-387.89 28.348C302.996 805.49 193.98 723.95 135.206 617.371c-53.848-97.647-27.589-204.854 1.01-306.426 27.452-97.496 50.612-216.697 155.942-250.996 101.686-33.113 199.883 63.5 304.402 101.092Z" clip-rule="evenodd"/>
    <path stroke="#FFFBFB" d="M579.429 209.503c113.88 24.112 271.384-11.424 325.71 82.409 54.916 94.852-83.375 177.516-118.896 274.802-29.01 79.455 12.257 191.273-67.027 234.416-79.449 43.233-179.243-28.967-273.406-49.166-100.604-21.581-229.123 6.092-288.276-71.323-59.421-77.766 15.689-171.391 34.975-260.176 20.174-92.869-10.512-214.193 78.627-262.795 89.381-48.734 202.242 29.378 308.293 51.833Z" clip-rule="evenodd"/>
    <path stroke="#FFFBFB" d="M592.634 179.282c82.074 24.17 144.15 77.319 199.762 137.567 68.812 74.548 152.918 148.996 151.122 242.566-2.067 107.676-53.035 224.37-160.914 267.521-104.174 41.669-219.974-35.07-332.188-70.285-99.077-31.092-208.474-44.906-273.479-119.784-71.059-81.851-110.9-191.111-78.456-285.602 31.029-90.371 136.389-135.392 234.762-169.629 82.139-28.587 172.411-27.968 259.391-2.354Z" clip-rule="evenodd"/>
    <path stroke="#FFFBFB" d="M587.564 162.9c96.43 25.297 159.142 104.026 213.48 180.673 54.973 77.544 102.052 161.081 91.28 249.213-11.929 97.594-51.523 205.52-151.457 243.112-96.057 36.134-201.743-33.071-301.129-72.863-77.217-30.916-147.998-67.338-199.81-127.701-59.178-68.946-120.205-146.843-106.841-229.564 13.966-86.452 92.322-147.433 174.871-191.546 83.671-44.714 181.987-76.932 279.606-51.324Z" clip-rule="evenodd"/>
  </g>
</svg>
