<svg xmlns="http://www.w3.org/2000/svg" width="61" height="60" fill="none" viewBox="0 0 61 60">
  <circle cx="30.8" cy="30" r="30" fill="#FBFBFB"/>
  <g clip-path="url(#a)">
    <path fill="#0B7077" d="M20.3 28.375c1.655 0 3-1.457 3-3.25s-1.345-3.25-3-3.25-3 1.457-3 3.25 1.345 3.25 3 3.25Zm21 0c1.655 0 3-1.457 3-3.25s-1.345-3.25-3-3.25-3 1.457-3 3.25 1.345 3.25 3 3.25ZM42.8 30h-3c-.825 0-1.57.36-2.114.945 1.889 1.122 3.23 3.148 3.52 5.555H44.3c.83 0 1.5-.726 1.5-1.625V33.25c0-1.793-1.345-3.25-3-3.25Zm-12 0c2.902 0 5.25-2.544 5.25-5.688 0-3.143-2.348-5.687-5.25-5.687s-5.25 2.544-5.25 5.688c0 3.143 2.348 5.687 5.25 5.687Zm3.6 1.625h-.389c-.975.508-2.058.813-3.211.813s-2.231-.305-3.21-.813h-.39c-2.981 0-5.4 2.62-5.4 5.85v1.462c0 1.346 1.008 2.438 2.25 2.438h13.5c1.242 0 2.25-1.092 2.25-2.438v-1.462c0-3.23-2.419-5.85-5.4-5.85Zm-10.486-.68C23.37 30.36 22.625 30 21.8 30h-3c-1.655 0-3 1.457-3 3.25v1.625c0 .899.67 1.625 1.5 1.625h3.09c.294-2.407 1.635-4.433 3.524-5.555Z"/>
  </g>
  <defs>
    <clipPath id="a">
      <path fill="#fff" d="M15.8 17h30v26h-30z"/>
    </clipPath>
  </defs>
</svg>
