<svg xmlns="http://www.w3.org/2000/svg" width="63" height="38" fill="none" viewBox="0 0 63 38">
  <path fill="#0B7077" d="M54.009 34.803V18.938s-12.239 1.56-22.776 6.786c-10.537-5.225-22.775-6.786-22.775-6.786v15.865c-3.591.804-6.497 1.773-8.458 2.884 6.615-2.08 18.121-3.475 31.21-3.475 13.088 0 24.594 1.371 31.21 3.475-1.938-1.111-4.82-2.08-8.411-2.884Z"/>
  <path fill="#0B7077" d="M11.79 17.236v2.246c4.347.828 12.285 2.672 19.444 6.242-8.458-6.644-19.444-8.488-19.444-8.488Zm38.91 0s-10.985 1.844-19.443 8.488c7.159-3.547 15.097-5.415 19.444-6.242v-2.246Zm-19.443.213a7.402 7.402 0 0 1-1.937 2.553l1.913 3.334 1.961-3.334a7.125 7.125 0 0 1-1.937-2.553Zm-5.812-2.483a2.345 2.345 0 0 0 2.34-2.34 2.346 2.346 0 0 0-2.34-2.341 2.345 2.345 0 0 0-2.339 2.34 2.33 2.33 0 0 0 2.34 2.341Zm-.78-3.972a.898.898 0 1 1 0 1.795.898.898 0 0 1 0-1.795Zm10.041 1.632c0 1.276 1.04 2.34 2.316 2.34a2.345 2.345 0 0 0 2.339-2.34 2.346 2.346 0 0 0-2.34-2.341c-1.251.024-2.315 1.064-2.315 2.34Zm2.6-.733a.898.898 0 1 1-1.796.001.898.898 0 0 1 1.795-.001Z"/>
  <path fill="#0B7077" d="M20.98 17.212a6.363 6.363 0 0 0 4.465 1.82c2.552 0 4.773-1.512 5.812-3.688a6.41 6.41 0 0 0 5.812 3.689c1.748 0 3.308-.71 4.465-1.82.497.709.922 1.465 1.276 2.245a49.32 49.32 0 0 1 3.922-1.276c-.756-1.56-1.937-2.956-3.426-4.138.095-.45.166-.946.166-1.418 0-.946-.213-1.845-.59-2.672a11.937 11.937 0 0 0-2.01-3.641L40.827 0 35.58 2.459c-1.37-.52-2.835-.78-4.324-.78-1.488 0-2.953.26-4.323.78L21.665 0l-.047 6.313c-.85 1.087-1.536 2.293-1.985 3.593a6.55 6.55 0 0 0-.614 2.72c0 .496.047.969.165 1.418-1.488 1.182-2.646 2.577-3.402 4.138a66.65 66.65 0 0 1 3.922 1.276c.354-.78.78-1.536 1.276-2.246Zm21.12-4.586c0 2.79-2.268 5.06-5.056 5.06a5.063 5.063 0 0 1-5.055-5.06c0-2.79 2.268-5.06 5.055-5.06 2.788.023 5.056 2.293 5.056 5.06Zm-10.867-9.6c3.213 0 6.142 1.395 8.15 3.641a6.56 6.56 0 0 0-2.362-.449c-2.552 0-4.773 1.513-5.812 3.688a6.41 6.41 0 0 0-5.812-3.688c-.827 0-1.63.166-2.339.45 2.055-2.247 4.961-3.642 8.174-3.642ZM25.444 7.59a5.064 5.064 0 0 1 5.056 5.06c0 2.79-2.268 5.06-5.056 5.06a5.063 5.063 0 0 1-5.056-5.06c0-2.79 2.268-5.06 5.056-5.06Z"/>
</svg>
